<svg width="48" height="48" viewBox="0 0 48 48" fill="none" xmlns="http://www.w3.org/2000/svg">
<path d="M38.3373 26.49L34.615 24L38.3373 21.5101V26.49ZM25.4881 37.0446V30.1047L31.9388 25.7906L37.146 29.2731L25.4881 37.0446ZM24.0004 27.52L18.7377 24L24.0004 20.48L29.2626 24L24.0004 27.52ZM22.5122 37.0446L10.8542 29.2731L16.0619 25.7906L22.5122 30.1047V37.0446ZM9.66308 21.5101L13.3857 24L9.66308 26.49V21.5101ZM22.5122 10.9555V17.8953L16.0619 22.2104L10.8542 18.7268L22.5122 10.9555ZM25.4881 10.9555L37.146 18.7268L31.9388 22.2104L25.4881 17.8953V10.9555ZM41.2999 18.531C41.2968 18.5092 41.2913 18.4883 41.2877 18.4664C41.2803 18.4244 41.2727 18.3825 41.2617 18.3416C41.2552 18.317 41.2462 18.2933 41.2385 18.2697C41.2266 18.2332 41.2148 18.1968 41.2002 18.1613C41.1901 18.1367 41.1784 18.1121 41.167 18.0885C41.1514 18.0547 41.1351 18.0219 41.1164 17.9901C41.1028 17.9664 41.0882 17.9436 41.0741 17.9209C41.0541 17.8898 41.0336 17.8598 41.0111 17.8306C40.9949 17.8088 40.9776 17.7869 40.9602 17.7659C40.9365 17.7387 40.9119 17.7114 40.886 17.6858C40.8665 17.6659 40.8472 17.6458 40.8268 17.6276C40.7994 17.603 40.7713 17.5792 40.7425 17.5565C40.7203 17.5392 40.6983 17.5219 40.6752 17.5056C40.6665 17.5001 40.6588 17.4928 40.6506 17.4873L24.8254 6.93727C24.3256 6.60396 23.6747 6.60396 23.1748 6.93727L7.34975 17.4873C7.34151 17.4928 7.33375 17.5001 7.32516 17.5056C7.30188 17.5219 7.28003 17.5392 7.25819 17.5565C7.22906 17.5792 7.20076 17.603 7.17402 17.6276C7.15301 17.6458 7.13391 17.6659 7.11433 17.6858C7.08843 17.7114 7.06384 17.7387 7.04056 17.7659C7.02277 17.7869 7.00546 17.8088 6.98911 17.8306C6.96726 17.8598 6.94625 17.8898 6.92667 17.9209C6.91163 17.9436 6.89754 17.9664 6.88393 17.9901C6.86567 18.0219 6.84931 18.0547 6.83331 18.0885C6.82197 18.1121 6.81016 18.1367 6.80013 18.1613C6.78557 18.1968 6.77374 18.2332 6.76181 18.2697C6.75405 18.2933 6.74545 18.317 6.73865 18.3416C6.72766 18.3825 6.72038 18.4244 6.71262 18.4664C6.70904 18.4883 6.70355 18.5092 6.70081 18.531C6.69209 18.5948 6.68719 18.6595 6.68719 18.725V29.275C6.68719 29.3406 6.69209 29.4053 6.70081 29.47C6.70355 29.491 6.70904 29.5127 6.71262 29.5336C6.72038 29.5756 6.72766 29.6174 6.73865 29.6585C6.74545 29.6831 6.75405 29.7067 6.76181 29.7305C6.77374 29.7668 6.78557 29.8033 6.80013 29.8397C6.81016 29.8644 6.82197 29.888 6.83331 29.9117C6.84931 29.9452 6.86567 29.9781 6.88393 30.0109C6.89754 30.0338 6.91163 30.0564 6.92667 30.0792C6.94625 30.1102 6.96726 30.1403 6.98911 30.1694C7.00546 30.1922 7.02277 30.2131 7.04056 30.234C7.06384 30.2613 7.08843 30.2887 7.11433 30.3142C7.13391 30.3342 7.15301 30.3542 7.17402 30.3724C7.20076 30.3972 7.22906 30.4208 7.25819 30.4435C7.28003 30.4609 7.30188 30.4781 7.32516 30.4945C7.33375 30.5 7.34151 30.5073 7.34975 30.5126L23.1748 41.0628C23.4248 41.2294 23.7126 41.3132 24.0004 41.3132C24.2877 41.3132 24.5755 41.2294 24.8254 41.0628L40.6506 30.5126C40.6588 30.5073 40.6665 30.5 40.6752 30.4945C40.6983 30.4781 40.7203 30.4609 40.7425 30.4435C40.7713 30.4208 40.7994 30.3972 40.8268 30.3724C40.8472 30.3542 40.8665 30.3342 40.886 30.3142C40.9119 30.2887 40.9365 30.2613 40.9602 30.234C40.9776 30.2131 40.9949 30.1922 41.0111 30.1694C41.0336 30.1403 41.0541 30.1102 41.0741 30.0792C41.0882 30.0564 41.1028 30.0338 41.1164 30.0109C41.1351 29.9781 41.1514 29.9452 41.167 29.9117C41.1784 29.888 41.1901 29.8644 41.2002 29.8397C41.2148 29.8033 41.2266 29.7668 41.2385 29.7305C41.2462 29.7067 41.2552 29.6831 41.2617 29.6585C41.2727 29.6174 41.2803 29.5756 41.2877 29.5336C41.2913 29.5127 41.2968 29.491 41.2999 29.47C41.3081 29.4053 41.3133 29.3406 41.3133 29.275V18.725C41.3133 18.6595 41.3081 18.5948 41.2999 18.531Z" fill="#1E1F26"/>
</svg>
